<?xml version="1.0" encoding="UTF-8"?>
<svg width="195px" height="17px" viewBox="0 0 195 17" version="1.1" xmlns="http://www.w3.org/2000/svg" xmlns:xlink="http://www.w3.org/1999/xlink">
    <g id="Page-1" stroke="none" stroke-width="1" fill="none" fill-rule="evenodd">
        <g id="Artboard" transform="translate(-64.000000, -147.000000)" fill="#FFFFFF">
            <path d="M81.47,147.644 L81.47,163 L78.39,163 L78.39,153.298 L74.21,163 L71.988,163 L67.83,153.342 L67.83,163 L64.728,163 L64.728,147.644 L68.182,147.644 L73.11,159.018 L78.038,147.644 L81.47,147.644 Z M97.154,158.952 C98.0193377,158.027995 98.452,156.803341 98.452,155.278 C98.452,153.752659 98.0193377,152.535338 97.154,151.626 C96.2886623,150.716662 95.1593403,150.262 93.766,150.262 C92.3726597,150.262 91.239671,150.720329 90.367,151.637 C89.494329,152.553671 89.058,153.770992 89.058,155.289 C89.058,156.807008 89.494329,158.024329 90.367,158.941 C91.239671,159.857671 92.3726597,160.316 93.766,160.316 C95.1593403,160.316 96.2886623,159.861338 97.154,158.952 Z M93.766,163.154 C91.5513223,163.154 89.6886742,162.413341 88.178,160.932 C86.6673258,159.450659 85.912,157.569678 85.912,155.289 C85.912,153.008322 86.6709924,151.127341 88.189,149.646 C89.7070076,148.164659 91.5696556,147.424 93.777,147.424 C95.9843444,147.424 97.8433258,148.164659 99.354,149.646 C100.864674,151.127341 101.62,153.008322 101.62,155.289 C101.62,157.569678 100.864674,159.450659 99.354,160.932 C97.8433258,162.413341 95.9806777,163.154 93.766,163.154 Z M105.16,150.02 L105.16,147.644 L116.534,147.644 L116.534,150.02 L112.376,150.02 L112.376,163 L109.296,163 L109.296,150.02 L105.16,150.02 Z M120.008,150.02 L120.008,147.644 L131.382,147.644 L131.382,150.02 L127.224,150.02 L127.224,163 L124.144,163 L124.144,150.02 L120.008,150.02 Z M146.142,158.952 C147.007338,158.027995 147.44,156.803341 147.44,155.278 C147.44,153.752659 147.007338,152.535338 146.142,151.626 C145.276662,150.716662 144.14734,150.262 142.754,150.262 C141.36066,150.262 140.227671,150.720329 139.355,151.637 C138.482329,152.553671 138.046,153.770992 138.046,155.289 C138.046,156.807008 138.482329,158.024329 139.355,158.941 C140.227671,159.857671 141.36066,160.316 142.754,160.316 C144.14734,160.316 145.276662,159.861338 146.142,158.952 Z M142.754,163.154 C140.539322,163.154 138.676674,162.413341 137.166,160.932 C135.655326,159.450659 134.9,157.569678 134.9,155.289 C134.9,153.008322 135.658992,151.127341 137.177,149.646 C138.695008,148.164659 140.557656,147.424 142.765,147.424 C144.972344,147.424 146.831326,148.164659 148.342,149.646 C149.852674,151.127341 150.608,153.008322 150.608,155.289 C150.608,157.569678 149.852674,159.450659 148.342,160.932 C146.831326,162.413341 144.968678,163.154 142.754,163.154 Z M188.992,147.644 L188.992,163 L185.912,163 L185.912,153.298 L181.732,163 L179.51,163 L175.352,153.342 L175.352,163 L172.25,163 L172.25,147.644 L175.704,147.644 L180.632,159.018 L185.56,147.644 L188.992,147.644 Z M204.676,158.952 C205.541338,158.027995 205.974,156.803341 205.974,155.278 C205.974,153.752659 205.541338,152.535338 204.676,151.626 C203.810662,150.716662 202.68134,150.262 201.288,150.262 C199.89466,150.262 198.761671,150.720329 197.889,151.637 C197.016329,152.553671 196.58,153.770992 196.58,155.289 C196.58,156.807008 197.016329,158.024329 197.889,158.941 C198.761671,159.857671 199.89466,160.316 201.288,160.316 C202.68134,160.316 203.810662,159.861338 204.676,158.952 Z M201.288,163.154 C199.073322,163.154 197.210674,162.413341 195.7,160.932 C194.189326,159.450659 193.434,157.569678 193.434,155.289 C193.434,153.008322 194.192992,151.127341 195.711,149.646 C197.229008,148.164659 199.091656,147.424 201.299,147.424 C203.506344,147.424 205.365326,148.164659 206.876,149.646 C208.386674,151.127341 209.142,153.008322 209.142,155.289 C209.142,157.569678 208.386674,159.450659 206.876,160.932 C205.365326,162.413341 203.502678,163.154 201.288,163.154 Z M212.682,150.02 L212.682,147.644 L224.056,147.644 L224.056,150.02 L219.898,150.02 L219.898,163 L216.818,163 L216.818,150.02 L212.682,150.02 Z M227.53,150.02 L227.53,147.644 L238.904,147.644 L238.904,150.02 L234.746,150.02 L234.746,163 L231.666,163 L231.666,150.02 L227.53,150.02 Z M253.664,158.952 C254.529338,158.027995 254.962,156.803341 254.962,155.278 C254.962,153.752659 254.529338,152.535338 253.664,151.626 C252.798662,150.716662 251.66934,150.262 250.276,150.262 C248.88266,150.262 247.749671,150.720329 246.877,151.637 C246.004329,152.553671 245.568,153.770992 245.568,155.289 C245.568,156.807008 246.004329,158.024329 246.877,158.941 C247.749671,159.857671 248.88266,160.316 250.276,160.316 C251.66934,160.316 252.798662,159.861338 253.664,158.952 Z M250.276,163.154 C248.061322,163.154 246.198674,162.413341 244.688,160.932 C243.177326,159.450659 242.422,157.569678 242.422,155.289 C242.422,153.008322 243.180992,151.127341 244.699,149.646 C246.217008,148.164659 248.079656,147.424 250.287,147.424 C252.494344,147.424 254.353326,148.164659 255.864,149.646 C257.374674,151.127341 258.13,153.008322 258.13,155.289 C258.13,157.569678 257.374674,159.450659 255.864,160.932 C254.353326,162.413341 252.490678,163.154 250.276,163.154 Z M166.522429,159.078 L164.406429,161.171 L161.048429,157.813 L157.713429,161.148 L155.620429,159.055 L158.955429,155.72 L155.712429,152.454 L157.805429,150.361 L161.071429,153.604 L164.314429,150.361 L166.407429,152.454 L163.164429,155.697 L166.522429,159.078 Z" id="MOTTO-MOTTO"></path>
        </g>
    </g>
</svg>