<?xml version="1.0" encoding="UTF-8"?>
<svg width="203px" height="16px" viewBox="0 0 203 16" version="1.1" xmlns="http://www.w3.org/2000/svg" xmlns:xlink="http://www.w3.org/1999/xlink">
    <g id="Page-1" stroke="none" stroke-width="1" fill="#ffffff" fill-rule="evenodd">
        <path d="M16.742,0.22 L16.742,15.576 L13.662,15.576 L13.662,5.874 L9.482,15.576 L7.26,15.576 L3.102,5.918 L3.102,15.576 L-3.97903932e-13,15.576 L-3.97903932e-13,0.22 L3.454,0.22 L8.382,11.594 L13.31,0.22 L16.742,0.22 Z M32.426,11.528 C33.2913377,10.6039954 33.724,9.37934096 33.724,7.854 C33.724,6.32865904 33.2913377,5.11133788 32.426,4.202 C31.5606623,3.29266212 30.4313403,2.838 29.038,2.838 C27.6446597,2.838 26.511671,3.29632875 25.639,4.213 C24.766329,5.12967125 24.33,6.34699241 24.33,7.865 C24.33,9.38300759 24.766329,10.6003288 25.639,11.517 C26.511671,12.4336712 27.6446597,12.892 29.038,12.892 C30.4313403,12.892 31.5606623,12.4373379 32.426,11.528 Z M29.038,15.73 C26.8233223,15.73 24.9606742,14.9893407 23.45,13.508 C21.9393258,12.0266593 21.184,10.1456781 21.184,7.865 C21.184,5.58432193 21.9429924,3.70334074 23.461,2.222 C24.9790076,0.74065926 26.8416556,0 29.049,0 C31.2563444,0 33.1153258,0.74065926 34.626,2.222 C36.1366742,3.70334074 36.892,5.58432193 36.892,7.865 C36.892,10.1456781 36.1366742,12.0266593 34.626,13.508 C33.1153258,14.9893407 31.2526777,15.73 29.038,15.73 Z M40.432,2.596 L40.432,0.22 L51.806,0.22 L51.806,2.596 L47.648,2.596 L47.648,15.576 L44.568,15.576 L44.568,2.596 L40.432,2.596 Z M55.28,2.596 L55.28,0.22 L66.654,0.22 L66.654,2.596 L62.496,2.596 L62.496,15.576 L59.416,15.576 L59.416,2.596 L55.28,2.596 Z M81.414,11.528 C82.2793377,10.6039954 82.712,9.37934096 82.712,7.854 C82.712,6.32865904 82.2793377,5.11133788 81.414,4.202 C80.5486623,3.29266212 79.4193403,2.838 78.026,2.838 C76.6326597,2.838 75.499671,3.29632875 74.627,4.213 C73.754329,5.12967125 73.318,6.34699241 73.318,7.865 C73.318,9.38300759 73.754329,10.6003288 74.627,11.517 C75.499671,12.4336712 76.6326597,12.892 78.026,12.892 C79.4193403,12.892 80.5486623,12.4373379 81.414,11.528 Z M78.026,15.73 C75.8113223,15.73 73.9486742,14.9893407 72.438,13.508 C70.9273258,12.0266593 70.172,10.1456781 70.172,7.865 C70.172,5.58432193 70.9309924,3.70334074 72.449,2.222 C73.9670076,0.74065926 75.8296556,0 78.037,0 C80.2443444,0 82.1033258,0.74065926 83.614,2.222 C85.1246742,3.70334074 85.88,5.58432193 85.88,7.865 C85.88,10.1456781 85.1246742,12.0266593 83.614,13.508 C82.1033258,14.9893407 80.2406777,15.73 78.026,15.73 Z" id="MOTTO"></path>
        <path d="M133.742,0.22 L133.742,15.576 L130.662,15.576 L130.662,5.874 L126.482,15.576 L124.26,15.576 L120.102,5.918 L120.102,15.576 L117,15.576 L117,0.22 L120.454,0.22 L125.382,11.594 L130.31,0.22 L133.742,0.22 Z M149.426,11.528 C150.291338,10.6039954 150.724,9.37934096 150.724,7.854 C150.724,6.32865904 150.291338,5.11133788 149.426,4.202 C148.560662,3.29266212 147.43134,2.838 146.038,2.838 C144.64466,2.838 143.511671,3.29632875 142.639,4.213 C141.766329,5.12967125 141.33,6.34699241 141.33,7.865 C141.33,9.38300759 141.766329,10.6003288 142.639,11.517 C143.511671,12.4336712 144.64466,12.892 146.038,12.892 C147.43134,12.892 148.560662,12.4373379 149.426,11.528 Z M146.038,15.73 C143.823322,15.73 141.960674,14.9893407 140.45,13.508 C138.939326,12.0266593 138.184,10.1456781 138.184,7.865 C138.184,5.58432193 138.942992,3.70334074 140.461,2.222 C141.979008,0.74065926 143.841656,0 146.049,0 C148.256344,0 150.115326,0.74065926 151.626,2.222 C153.136674,3.70334074 153.892,5.58432193 153.892,7.865 C153.892,10.1456781 153.136674,12.0266593 151.626,13.508 C150.115326,14.9893407 148.252678,15.73 146.038,15.73 Z M157.432,2.596 L157.432,0.22 L168.806,0.22 L168.806,2.596 L164.648,2.596 L164.648,15.576 L161.568,15.576 L161.568,2.596 L157.432,2.596 Z M172.28,2.596 L172.28,0.22 L183.654,0.22 L183.654,2.596 L179.496,2.596 L179.496,15.576 L176.416,15.576 L176.416,2.596 L172.28,2.596 Z M198.414,11.528 C199.279338,10.6039954 199.712,9.37934096 199.712,7.854 C199.712,6.32865904 199.279338,5.11133788 198.414,4.202 C197.548662,3.29266212 196.41934,2.838 195.026,2.838 C193.63266,2.838 192.499671,3.29632875 191.627,4.213 C190.754329,5.12967125 190.318,6.34699241 190.318,7.865 C190.318,9.38300759 190.754329,10.6003288 191.627,11.517 C192.499671,12.4336712 193.63266,12.892 195.026,12.892 C196.41934,12.892 197.548662,12.4373379 198.414,11.528 Z M195.026,15.73 C192.811322,15.73 190.948674,14.9893407 189.438,13.508 C187.927326,12.0266593 187.172,10.1456781 187.172,7.865 C187.172,5.58432193 187.930992,3.70334074 189.449,2.222 C190.967008,0.74065926 192.829656,0 195.037,0 C197.244344,0 199.103326,0.74065926 200.614,2.222 C202.124674,3.70334074 202.88,5.58432193 202.88,7.865 C202.88,10.1456781 202.124674,12.0266593 200.614,13.508 C199.103326,14.9893407 197.240678,15.73 195.026,15.73 Z" id="MOTTO"></path>
        <polygon id="×" points="107.096 3.652 102.7 8.02 107.096 12.444 105.5 14.04 101.104 9.616 96.652 14.04 95 12.36 99.424 7.964 95.084 3.596 96.68 2 101.02 6.368 105.416 2"></polygon>
    </g>
</svg>